<svg width="9" height="13" viewBox="0 0 9 13" fill="none" xmlns="http://www.w3.org/2000/svg">
<path d="M1.03646 1.86296C0.607721 1.51482 0.54239 0.885032 0.890536 0.456298C1.23868 0.0275632 1.86847 -0.0377674 2.2972 0.310378L1.03646 1.86296ZM7.37751 5.72391L8.00788 4.94762L8.00788 4.94762L7.37751 5.72391ZM7.37751 7.2765L6.74713 6.5002L6.74713 6.5002L7.37751 7.2765ZM2.2972 12.69C1.86847 13.0382 1.23868 12.9728 0.890537 12.5441C0.542391 12.1154 0.607722 11.4856 1.03646 11.1374L2.2972 12.69ZM2.2972 0.310378L8.00788 4.94762L6.74713 6.5002L1.03646 1.86296L2.2972 0.310378ZM8.00788 8.05279L2.2972 12.69L1.03646 11.1374L6.74713 6.5002L8.00788 8.05279ZM8.00788 4.94762C8.99355 5.74801 8.99355 7.25239 8.00788 8.05279L6.74713 6.5002L6.74713 6.5002L8.00788 4.94762Z" fill="#081131"/>
</svg>
