<svg width="16" height="20" viewBox="0 0 16 20" fill="none" xmlns="http://www.w3.org/2000/svg">
<path d="M13.8889 2.22222H12.2222V1.66667C12.2222 1.35975 11.9736 1.11111 11.6667 1.11111H9.34929C9.12003 0.464405 8.50198 0 7.77778 0C7.05357 0 6.43556 0.464405 6.20627 1.11111H3.88889C3.58197 1.11111 3.33333 1.35975 3.33333 1.66667V2.22222H1.66667C0.747619 2.22222 0 2.96984 0 3.88889V18.3333C0 19.2524 0.747619 20 1.66667 20H13.8889C14.8079 20 15.5556 19.2524 15.5556 18.3333V3.88889C15.5556 2.96984 14.8079 2.22222 13.8889 2.22222ZM4.44444 2.22222H6.66667C6.97359 2.22222 7.22222 1.97359 7.22222 1.66667C7.22222 1.36021 7.47148 1.11111 7.77778 1.11111C8.08408 1.11111 8.33333 1.36021 8.33333 1.66667C8.33333 1.97359 8.58197 2.22222 8.88889 2.22222H11.1111V3.33333H4.44444V2.22222ZM14.4444 18.3333C14.4444 18.6398 14.1952 18.8889 13.8889 18.8889H1.66667C1.36037 18.8889 1.11111 18.6398 1.11111 18.3333V3.88889C1.11111 3.58243 1.36037 3.33333 1.66667 3.33333H3.33333V3.88889C3.33333 4.19581 3.58197 4.44444 3.88889 4.44444H11.6667C11.9736 4.44444 12.2222 4.19581 12.2222 3.88889V3.33333H13.8889C14.1952 3.33333 14.4444 3.58243 14.4444 3.88889V18.3333Z" fill="#4D4D4D"/>
</svg>
