<?xml version="1.0" encoding="utf-8"?>
<!-- Generator: Adobe Illustrator 25.0.1, SVG Export Plug-In . SVG Version: 6.00 Build 0)  -->
<svg version="1.1" id="Layer_1" xmlns="http://www.w3.org/2000/svg" xmlns:xlink="http://www.w3.org/1999/xlink" x="0px" y="0px"
	 viewBox="0 0 641.81 781.61" style="enable-background:new 0 0 641.81 781.61;" xml:space="preserve">
<path d="M216.83,29.84L216.83,29.84c-12.02,13.65-28.98,21.97-47.14,23.12L37.64,61.34c-22.15,1.41-38.96,20.5-37.56,42.65l0,0
	c1.41,22.15,20.5,38.96,42.65,37.56l80.21-5.09l401.03-25.44l80.21-5.09c22.15-1.41,38.96-20.5,37.56-42.65v0
	c-1.41-22.15-20.5-38.96-42.65-37.56L467.02,34.1c-18.16,1.15-36.03-4.96-49.68-16.98l0,0C403.69,5.09,385.82-1.01,367.66,0.14
	l-103.7,6.58C245.81,7.87,228.85,16.19,216.83,29.84z M38.35,178.86v566.66c0,19.85,16.24,36.09,36.09,36.09h490.39
	c19.85,0,36.09-16.24,36.09-36.09V178.86H38.35z"/>
</svg>
