<svg width="74" height="24" viewBox="0 0 74 24" fill="none" xmlns="http://www.w3.org/2000/svg">
<path d="M6 19C6 20.1 6.9 21 8 21H16C17.1 21 18 20.1 18 19V7H6V19ZM19 4H15.5L14.5 3H9.5L8.5 4H5V6H19V4Z" fill="#7F8591"/>
<path d="M34.5268 17.5H31.0765V7.31818H34.5964C35.6073 7.31818 36.4757 7.52202 37.2015 7.92969C37.9307 8.33404 38.4908 8.91572 38.8819 9.67472C39.273 10.4337 39.4686 11.3419 39.4686 12.3991C39.4686 13.4598 39.2714 14.3712 38.877 15.1335C38.4859 15.8958 37.9208 16.4808 37.1816 16.8885C36.4458 17.2962 35.5609 17.5 34.5268 17.5ZM32.921 15.9041H34.4373C35.1466 15.9041 35.7382 15.7749 36.2122 15.5163C36.6861 15.2545 37.0424 14.8651 37.2811 14.348C37.5197 13.8277 37.639 13.178 37.639 12.3991C37.639 11.6203 37.5197 10.974 37.2811 10.4602C37.0424 9.94318 36.6895 9.55706 36.2221 9.30185C35.7581 9.04332 35.1814 8.91406 34.492 8.91406H32.921V15.9041ZM44.5222 17.6491C43.7566 17.6491 43.0953 17.4901 42.5385 17.1719C41.985 16.8504 41.5591 16.3963 41.2608 15.8097C40.9625 15.2197 40.8134 14.5253 40.8134 13.7266C40.8134 12.9411 40.9625 12.2517 41.2608 11.6584C41.5624 11.0618 41.9834 10.5978 42.5236 10.2663C43.0639 9.93158 43.6986 9.7642 44.4277 9.7642C44.8984 9.7642 45.3425 9.84044 45.7601 9.9929C46.181 10.142 46.5523 10.3741 46.8738 10.6889C47.1986 11.0038 47.4538 11.4048 47.6394 11.892C47.825 12.3759 47.9178 12.9527 47.9178 13.6222V14.174H41.6586V12.9609H46.1926C46.1893 12.6162 46.1148 12.3097 45.9689 12.0412C45.8231 11.7694 45.6193 11.5556 45.3574 11.3999C45.0989 11.2441 44.7973 11.1662 44.4526 11.1662C44.0847 11.1662 43.7615 11.2557 43.4831 11.4347C43.2047 11.6103 42.9876 11.8423 42.8319 12.1307C42.6794 12.4157 42.6015 12.7289 42.5982 13.0703V14.1293C42.5982 14.5734 42.6794 14.9545 42.8418 15.2727C43.0042 15.5876 43.2312 15.8295 43.5229 15.9986C43.8146 16.1643 44.156 16.2472 44.5471 16.2472C44.8089 16.2472 45.0459 16.2107 45.258 16.1378C45.4701 16.0616 45.6541 15.9505 45.8098 15.8047C45.9656 15.6589 46.0833 15.4782 46.1628 15.2628L47.8432 15.4517C47.7372 15.8958 47.535 16.2836 47.2367 16.6151C46.9417 16.9432 46.5639 17.1984 46.1032 17.3807C45.6425 17.5597 45.1155 17.6491 44.5222 17.6491ZM51.2401 7.31818V17.5H49.4403V7.31818H51.2401ZM56.4714 17.6491C55.7058 17.6491 55.0446 17.4901 54.4877 17.1719C53.9342 16.8504 53.5083 16.3963 53.21 15.8097C52.9118 15.2197 52.7626 14.5253 52.7626 13.7266C52.7626 12.9411 52.9118 12.2517 53.21 11.6584C53.5117 11.0618 53.9326 10.5978 54.4728 10.2663C55.0131 9.93158 55.6478 9.7642 56.377 9.7642C56.8476 9.7642 57.2917 9.84044 57.7093 9.9929C58.1303 10.142 58.5015 10.3741 58.823 10.6889C59.1478 11.0038 59.403 11.4048 59.5886 11.892C59.7742 12.3759 59.867 12.9527 59.867 13.6222V14.174H53.6078V12.9609H58.1419C58.1386 12.6162 58.064 12.3097 57.9181 12.0412C57.7723 11.7694 57.5685 11.5556 57.3066 11.3999C57.0481 11.2441 56.7465 11.1662 56.4018 11.1662C56.0339 11.1662 55.7108 11.2557 55.4324 11.4347C55.1539 11.6103 54.9368 11.8423 54.7811 12.1307C54.6286 12.4157 54.5507 12.7289 54.5474 13.0703V14.1293C54.5474 14.5734 54.6286 14.9545 54.791 15.2727C54.9534 15.5876 55.1805 15.8295 55.4721 15.9986C55.7638 16.1643 56.1052 16.2472 56.4963 16.2472C56.7581 16.2472 56.9951 16.2107 57.2072 16.1378C57.4193 16.0616 57.6033 15.9505 57.7591 15.8047C57.9148 15.6589 58.0325 15.4782 58.112 15.2628L59.7924 15.4517C59.6864 15.8958 59.4842 16.2836 59.1859 16.6151C58.8909 16.9432 58.5131 17.1984 58.0524 17.3807C57.5917 17.5597 57.0647 17.6491 56.4714 17.6491ZM65.2028 9.86364V11.2557H60.8129V9.86364H65.2028ZM61.8967 8.03409H63.6964V15.2031C63.6964 15.4451 63.7328 15.6307 63.8058 15.7599C63.882 15.8859 63.9814 15.9721 64.104 16.0185C64.2267 16.0649 64.3626 16.0881 64.5117 16.0881C64.6244 16.0881 64.7272 16.0798 64.82 16.0632C64.9161 16.0466 64.989 16.0317 65.0387 16.0185L65.342 17.4254C65.2459 17.4586 65.1083 17.495 64.9293 17.5348C64.7537 17.5746 64.5382 17.5978 64.283 17.6044C63.8323 17.6177 63.4263 17.5497 63.065 17.4006C62.7037 17.2481 62.417 17.0128 62.2049 16.6946C61.9961 16.3764 61.8933 15.9787 61.8967 15.5014V8.03409ZM70.0066 17.6491C69.2409 17.6491 68.5797 17.4901 68.0229 17.1719C67.4694 16.8504 67.0435 16.3963 66.7452 15.8097C66.4469 15.2197 66.2978 14.5253 66.2978 13.7266C66.2978 12.9411 66.4469 12.2517 66.7452 11.6584C67.0468 11.0618 67.4677 10.5978 68.008 10.2663C68.5482 9.93158 69.1829 9.7642 69.9121 9.7642C70.3828 9.7642 70.8269 9.84044 71.2445 9.9929C71.6654 10.142 72.0366 10.3741 72.3581 10.6889C72.6829 11.0038 72.9382 11.4048 73.1238 11.892C73.3094 12.3759 73.4022 12.9527 73.4022 13.6222V14.174H67.1429V12.9609H71.677C71.6737 12.6162 71.5991 12.3097 71.4533 12.0412C71.3075 11.7694 71.1036 11.5556 70.8418 11.3999C70.5833 11.2441 70.2817 11.1662 69.937 11.1662C69.5691 11.1662 69.2459 11.2557 68.9675 11.4347C68.6891 11.6103 68.472 11.8423 68.3162 12.1307C68.1638 12.4157 68.0859 12.7289 68.0826 13.0703V14.1293C68.0826 14.5734 68.1638 14.9545 68.3262 15.2727C68.4886 15.5876 68.7156 15.8295 69.0073 15.9986C69.2989 16.1643 69.6403 16.2472 70.0314 16.2472C70.2933 16.2472 70.5302 16.2107 70.7424 16.1378C70.9545 16.0616 71.1384 15.9505 71.2942 15.8047C71.45 15.6589 71.5676 15.4782 71.6472 15.2628L73.3276 15.4517C73.2215 15.8958 73.0194 16.2836 72.7211 16.6151C72.4261 16.9432 72.0482 17.1984 71.5875 17.3807C71.1268 17.5597 70.5998 17.6491 70.0066 17.6491Z" fill="#7F8591"/>
</svg>
