<svg width="21" height="19" viewBox="0 0 21 19" fill="none" xmlns="http://www.w3.org/2000/svg">
<path d="M19.6875 0.5H12.375C11.4561 0.5 10.6384 0.943049 10.125 1.62673C9.61164 0.943049 8.79392 0.5 7.875 0.5H0.5625C0.251743 0.5 0 0.751743 0 1.0625V15.6875C0 15.9983 0.251743 16.25 0.5625 16.25H7.875C8.80554 16.25 9.5625 17.007 9.5625 17.9375C9.5625 18.2483 9.81424 18.5 10.125 18.5C10.4358 18.5 10.6875 18.2483 10.6875 17.9375C10.6875 17.007 11.4445 16.25 12.375 16.25H19.6875C19.9983 16.25 20.25 15.9983 20.25 15.6875V1.0625C20.25 0.751743 19.9983 0.5 19.6875 0.5ZM9.5625 15.6943C9.09149 15.3392 8.50874 15.1249 7.875 15.1249H1.125V1.62492H7.875C8.80554 1.62492 9.5625 2.38188 9.5625 3.31242V15.6943ZM19.125 15.1249H12.375C11.7413 15.1249 11.1585 15.3392 10.6875 15.6943V3.3125C10.6875 2.38196 11.4445 1.625 12.375 1.625H19.125V15.1249Z" fill="#081131"/>
</svg>
