<svg width="24" height="24" viewBox="0 0 24 24" fill="none" xmlns="http://www.w3.org/2000/svg">
<path d="M0.000145906 1.13857V16.4744C0.000145906 16.6438 0.0673636 16.8064 0.187175 16.9264L6.57712 23.3163C6.97952 23.7186 7.66806 23.4133 7.66806 22.8533V17.1138H13.1543L15.5232 19.4827C15.9253 19.8847 16.6138 19.5795 16.6138 19.0195V15.8358H22.3648C22.7178 15.8358 23.0038 15.5498 23.0038 15.1968V10.0848C23.0038 9.73181 22.7178 9.44583 22.3648 9.44583H16.6138V6.27688C16.6138 6.07006 16.5284 5.86503 16.3626 5.74163C16.0979 5.54479 15.7438 5.57885 15.5232 5.79886L14.0579 7.26421V1.13899C14.0579 0.785977 13.7719 0.5 13.4189 0.5H0.638994C0.285977 0.5 0 0.785977 0 1.13899L0.000145906 1.13857ZM6.39009 21.3217L1.27813 16.2097V2.68083L6.39009 7.79279V21.3217ZM7.66808 15.8354V7.52852C7.66808 7.35914 7.60068 7.19654 7.48105 7.07655L2.1815 1.77746H12.7797V8.54167L9.13276 12.1883C8.88297 12.4381 8.88297 12.8424 9.13276 13.0919L11.8761 15.8352L7.66808 15.8354ZM21.7259 14.5575H15.975C15.622 14.5575 15.336 14.8434 15.336 15.1964V17.4878L10.4888 12.6406L15.336 7.79338V10.0848C15.336 10.4378 15.622 10.7238 15.975 10.7238H21.7259V14.5575Z" fill="#4D4D4D"/>
</svg>
