<svg width="47" height="47" viewBox="0 0 47 47" fill="none" xmlns="http://www.w3.org/2000/svg">
<path d="M23.8133 21.2871C23.6175 21.2675 23.3825 21.2675 23.1671 21.2871C20.9193 21.2108 18.7895 20.2626 17.2287 18.6433C15.6679 17.024 14.7986 14.8608 14.805 12.6117C14.805 7.81378 18.6825 3.9167 23.5 3.9167C24.6406 3.89612 25.774 4.1004 26.8356 4.51786C27.8972 4.93533 28.8662 5.55781 29.6873 6.34975C30.5083 7.1417 31.1653 8.08761 31.6208 9.13348C32.0763 10.1793 32.3213 11.3047 32.3419 12.4452C32.3624 13.5858 32.1582 14.7192 31.7407 15.7808C31.3232 16.8425 30.7008 17.8115 29.9088 18.6325C29.1169 19.4535 28.171 20.1106 27.1251 20.566C26.0792 21.0215 24.9539 21.2665 23.8133 21.2871ZM14.0217 28.5134C9.2825 31.6859 9.2825 36.8559 14.0217 40.0088C19.4071 43.6121 28.2392 43.6121 33.6246 40.0088C38.3638 36.8363 38.3638 31.6663 33.6246 28.5134C28.2588 24.9296 19.4267 24.9296 14.0217 28.5134Z" stroke="black" stroke-width="1.5" stroke-linecap="round" stroke-linejoin="round"/>
</svg>
