<?xml version="1.0" encoding="utf-8"?>
<!-- Generator: Adobe Illustrator 26.2.1, SVG Export Plug-In . SVG Version: 6.00 Build 0)  -->
<svg version="1.1" xmlns="http://www.w3.org/2000/svg" xmlns:xlink="http://www.w3.org/1999/xlink" x="0px" y="0px"
	 viewBox="0 0 1792 1792" style="enable-background:new 0 0 1792 1792;" xml:space="preserve">
<style type="text/css">
	.st0{display:none;}
	.st1{display:inline;fill:#D8D3D3;}
	.st2{fill:#D8D3D3;}
</style>
<g id="Layer_1" class="st0">
	<path class="st1" d="M1408,1088c0,17.3-6.3,32.3-19,45l-448,448c-12.7,12.7-27.7,19-45,19s-32.3-6.3-45-19l-448-448
		c-12.7-12.7-19-27.7-19-45s6.3-32.3,19-45s27.7-19,45-19h896c17.3,0,32.3,6.3,45,19S1408,1070.7,1408,1088z M1408,704
		c0,17.3-6.3,32.3-19,45s-27.7,19-45,19H448c-17.3,0-32.3-6.3-45-19s-19-27.7-19-45s6.3-32.3,19-45l448-448c12.7-12.7,27.7-19,45-19
		s32.3,6.3,45,19l448,448C1401.7,671.7,1408,686.7,1408,704z"/>
</g>
<g id="Layer_3">
	<path class="st2" d="M1408,704c0,17.3-6.3,32.3-19,45s-27.7,19-45,19H448c-17.3,0-32.3-6.3-45-19s-19-27.7-19-45s6.3-32.3,19-45
		l448-448c12.7-12.7,27.7-19,45-19s32.3,6.3,45,19l448,448C1401.7,671.7,1408,686.7,1408,704z"/>
</g>
<g id="Layer_2">
	<path d="M1408,1088c0,17.3-6.3,32.3-19,45l-448,448c-12.7,12.7-27.7,19-45,19s-32.3-6.3-45-19l-448-448c-12.7-12.7-19-27.7-19-45
		s6.3-32.3,19-45s27.7-19,45-19h896c17.3,0,32.3,6.3,45,19S1408,1070.7,1408,1088z"/>
</g>
</svg>
